<svg width="100" height="100" viewBox="0 0 100 100" fill="none" xmlns="http://www.w3.org/2000/svg">
<circle cx="50" cy="50" r="50" fill="#FDEAC4"/>
<path d="M49.6934 23.1115C49.2379 23.3718 49.2379 23.4238 49.2275 26.6932C49.2275 29.6606 49.2379 29.8271 49.4346 30.0354C49.5381 30.1603 49.7348 30.2853 49.8487 30.3269C50.1593 30.431 50.6251 30.202 50.7701 29.9C50.8425 29.723 50.8839 28.6402 50.8839 26.6203V23.5904L50.5837 23.2885C50.2628 22.9657 50.0247 22.924 49.6934 23.1115Z" fill="#F8BA3B"/>
<path d="M36.4416 27.099C36.1518 27.3905 36.1207 27.6612 36.3381 28.0777C36.7004 28.7857 39.33 32.8464 39.5578 33.0546C40.0857 33.5335 40.8415 33.1795 40.8415 32.4715C40.8415 32.1384 40.593 31.6802 39.3403 29.6916C38.5121 28.3797 37.715 27.2031 37.5701 27.0678C37.2284 26.7658 36.7626 26.7658 36.4416 27.099Z" fill="#F8BA3B"/>
<path d="M63.1724 27.1198C62.9343 27.1822 59.4766 32.3882 59.4766 32.6797C59.4766 32.9504 60.0149 33.5023 60.2737 33.5023C60.3772 33.5023 60.5739 33.4294 60.7085 33.3357C61.0605 33.0858 64.2387 28.2338 64.2387 27.9319C64.2387 27.5466 64.1352 27.3592 63.8143 27.2031C63.5141 27.0469 63.483 27.0365 63.1724 27.1198Z" fill="#F8BA3B"/>
<path d="M49.4355 34.5125C47.4995 34.6062 45.7706 35.0851 43.9072 36.0326C41.2052 37.4174 39.1036 39.5935 37.7785 42.4047C36.0392 46.0905 36.0806 50.4739 37.882 54.191C38.5549 55.5758 39.2485 56.5649 40.4805 57.8664C41.0706 58.5015 41.6917 59.2616 41.8574 59.5635C42.5199 60.7193 42.903 62.3331 42.9858 64.3218C43.0479 65.592 43.0686 65.7378 43.286 65.9564L43.5241 66.1959H50.0877H56.6512L56.8893 65.9356C57.0964 65.7066 57.1378 65.5608 57.1688 64.6654C57.2413 62.5309 57.6657 60.6151 58.3076 59.5115C58.4732 59.2408 59.1048 58.4703 59.7259 57.7935C61.0407 56.3567 61.7032 55.4092 62.3865 53.9723C63.4735 51.6713 63.9083 49.0579 63.6185 46.6215C63.4321 45.0806 62.8627 43.196 62.2105 41.9049C61.8689 41.249 60.9372 39.8954 60.3264 39.1874C58.1006 36.6157 54.6842 34.8352 51.506 34.5958C51.0815 34.5645 50.5639 34.5229 50.3672 34.5125C50.1705 34.4916 49.746 34.4916 49.4355 34.5125ZM51.889 36.2617C54.3529 36.6677 56.4856 37.7193 58.2765 39.4373C59.788 40.8846 60.7819 42.4672 61.3823 44.3621C61.8482 45.8198 61.9724 46.6424 61.9724 48.1729C61.9621 51.3902 60.7819 54.3576 58.6182 56.5441C57.3241 57.856 56.7754 58.6993 56.2267 60.2611C55.9058 61.1357 55.5435 63.1348 55.5435 63.9678V64.53H50.1187H44.694L44.6319 64.2905C44.6008 64.1656 44.5697 63.8428 44.5697 63.5825C44.5697 62.8329 44.2799 61.344 43.9382 60.3132C43.462 58.8868 42.9133 58.0017 41.5986 56.5961C40.3252 55.2322 39.673 54.2743 39.0829 52.8895C36.5672 47.0068 39.0622 40.1766 44.7561 37.3653C45.9984 36.751 47.013 36.4491 48.7108 36.1784C49.3423 36.0743 51.0194 36.1159 51.889 36.2617Z" fill="#F8BA3B"/>
<path d="M49.6928 38.0941C49.1648 38.4168 49.082 38.9478 49.4858 39.3539C49.7032 39.583 49.8688 39.6246 50.6556 39.6767C53.8235 39.9057 56.6497 41.8319 58.0266 44.6952C58.6064 45.8926 58.8341 46.6839 58.9169 47.8396C58.9791 48.7663 59.1136 49.1932 59.3828 49.3285C59.7037 49.5055 60.0971 49.4431 60.3559 49.1723C60.5837 48.9537 60.6148 48.8288 60.6148 48.2353C60.6148 47.85 60.5216 47.0587 60.3974 46.4861C59.6106 42.54 56.5773 39.3227 52.7261 38.344C51.5045 38.042 49.993 37.9171 49.6928 38.0941Z" fill="#F8BA3B"/>
<path d="M28.5946 35.8035C27.9941 35.9701 27.7974 36.7094 28.2426 37.1154C28.6877 37.5215 33.4913 40.062 33.8019 40.062C34.4334 40.062 34.7751 39.2291 34.3506 38.7293C34.1746 38.5315 29.6505 36.0014 29.1226 35.8035C28.988 35.7619 28.7499 35.7619 28.5946 35.8035Z" fill="#F8BA3B"/>
<path d="M71.0704 35.762C70.6252 35.939 65.9148 38.5419 65.7492 38.7085C65.2626 39.1875 65.6353 40.0621 66.2979 40.0621C66.5981 40.0621 71.4638 37.4903 71.8779 37.1155C72.1678 36.8448 72.1885 36.293 71.8986 36.0014C71.7847 35.8869 71.6501 35.7932 71.5984 35.7932C71.5466 35.7932 71.4431 35.7724 71.3603 35.7515C71.2878 35.7203 71.1532 35.7307 71.0704 35.762Z" fill="#F8BA3B"/>
<path d="M44.2476 67.2267C43.2952 67.4246 42.6016 68.2471 42.6016 69.1946C42.6016 70.1108 42.9846 70.7251 43.7921 71.1C44.1752 71.277 44.5789 71.2978 49.9622 71.2978C53.9997 71.2978 55.8218 71.2666 56.0702 71.1833C57.8198 70.5898 58.0165 68.2263 56.3808 67.4246L55.9046 67.1851L50.2625 67.1643C47.1567 67.1643 44.4547 67.1851 44.2476 67.2267ZM55.7286 68.9239C55.915 69.1113 55.8736 69.4028 55.6561 69.5278C55.5216 69.5902 53.5753 69.6319 50.0554 69.6319C46.5355 69.6319 44.5893 69.5902 44.4547 69.5278C44.2683 69.4236 44.1855 69.0072 44.3304 68.8718C44.3615 68.8302 46.9186 68.7989 50.0036 68.7989C54.2171 68.7989 55.6354 68.8302 55.7286 68.9239Z" fill="#F8BA3B"/>
<path d="M45.7589 72.2242C45.2931 72.3387 45.0446 72.5053 44.6926 72.9009C43.823 73.9005 44.1232 75.431 45.3138 76.0245L45.8521 76.2952H50.0242C54.5793 76.2952 54.6414 76.2848 55.2626 75.6913C55.7077 75.2644 55.8837 74.848 55.8837 74.2128C55.8837 73.5777 55.7077 73.1508 55.2626 72.7448C54.6518 72.1721 54.7657 72.1825 50.2623 72.1617C47.9537 72.1513 45.9349 72.1825 45.7589 72.2242ZM54.2066 74.0254C54.3101 74.2128 54.2894 74.2753 54.0927 74.4419C53.8753 74.6189 53.5855 74.6293 50.1174 74.6293C48.0676 74.6293 46.2766 74.5981 46.1523 74.5668C45.8728 74.494 45.7486 74.1504 45.9142 73.9525C46.0281 73.8172 46.6803 73.7964 50.0656 73.7964H54.0824L54.2066 74.0254Z" fill="#F8BA3B"/>
</svg>
