<svg width="100" height="100" viewBox="0 0 100 100" fill="none" xmlns="http://www.w3.org/2000/svg">
<circle cx="50" cy="50" r="50" fill="#FDEAC4"/>
<path d="M45.049 19.1111C38.8803 19.7076 34.4567 23.6757 33.1842 29.7497C32.8691 31.2347 32.8085 33.7422 33.0509 35.3733C33.5114 38.4773 34.6385 41.2404 36.5291 43.894C36.9291 44.4417 37.2442 44.9043 37.2442 44.9408C37.2442 44.9651 36.9897 45.0868 36.6746 45.2086C35.6687 45.5859 33.5114 46.7058 32.4813 47.3752C26.9307 51.0148 23.3797 56.8575 22.2769 64.1365C22.0345 65.8041 21.9133 69.2489 22.0709 70.6852C22.2163 72.0729 22.3011 72.1824 24.0705 73.2414C30.2635 76.9296 36.0686 79.0354 42.2252 79.7901C44.1885 80.0457 48.5999 80.0701 50.4542 79.851C54.6959 79.3519 58.5741 78.3294 62.4522 76.674C63.3491 76.2967 64.2944 75.8706 64.561 75.7367C65.0215 75.4933 65.0336 75.4933 65.9547 75.7246C67.1666 76.041 70.1601 76.1506 71.5538 75.9437C73.7959 75.6272 76.2924 74.5438 78.2315 73.0832C82.8853 69.5654 84.9941 63.4914 83.5519 57.7826C82.1582 52.2442 77.674 47.996 72.0628 46.9005C70.6206 46.6206 68.0635 46.6084 66.6576 46.8883C65.4942 47.1196 63.8096 47.6917 62.9007 48.1421L62.3189 48.4464L61.0343 47.5822C59.6406 46.6449 58.3317 45.9389 56.8531 45.3303L55.92 44.9529L56.6108 44.0157C60.1375 39.2441 61.2767 33.0606 59.5679 27.9847C58.8286 25.8059 57.75 24.1018 56.1381 22.5924C54.0172 20.584 51.351 19.4276 48.0424 19.0989C46.673 18.9651 46.4912 18.9651 45.049 19.1111ZM49.2422 22.2151C55.4958 23.5053 58.7438 29.5915 56.938 36.6879C55.7624 41.3256 51.9812 45.8537 48.3454 46.9614C46.7942 47.4361 45.1217 47.2535 43.5583 46.4258C40.4921 44.7947 37.7653 41.3378 36.5291 37.5157C35.9838 35.7994 35.8505 34.9108 35.8505 32.8537C35.8626 31.32 35.9111 30.76 36.1292 29.8714C36.4807 28.4473 37.4138 26.5484 38.2622 25.5259C40.6618 22.6533 44.9763 21.3508 49.2422 22.2151ZM40.5891 48.0204C43.9219 50.4183 47.4728 50.7835 50.8541 49.0915C51.557 48.7385 52.3327 48.2395 53.387 47.4726C53.6658 47.2657 54.3202 47.4361 56.1502 48.2151C57.3137 48.702 59.4588 49.9071 59.6042 50.1384C59.6527 50.2114 59.2406 50.7348 58.7074 51.2947C55.1443 55.0316 53.8233 60.4361 55.2534 65.4633C55.6533 66.8753 56.6956 68.9689 57.5924 70.174C58.4044 71.2695 59.883 72.7302 60.8525 73.3875C61.1918 73.6188 61.4827 73.8379 61.4827 73.8744C61.4827 73.9717 59.3861 74.7873 57.8833 75.2864C49.6543 77.9886 41.3162 77.7452 33.1721 74.5317C31.1845 73.7526 28.7728 72.5841 26.7368 71.4156C24.6765 70.2348 24.8098 70.5392 24.9189 67.4352C25.0522 63.5522 25.7793 60.4848 27.3064 57.4417C29.5606 52.938 33.5842 49.3958 38.3349 47.7039C38.9045 47.5091 39.4256 47.3387 39.5105 47.3387C39.5832 47.3387 40.0801 47.643 40.5891 48.0204ZM70.7539 49.6636C73.505 50.0045 76.0137 51.2947 77.9285 53.3397C78.8981 54.3865 79.3344 55.0316 79.9767 56.3949C80.7766 58.099 81.0432 59.3406 81.0432 61.3977C81.0432 62.7489 80.9947 63.321 80.7766 64.1852C79.8919 67.7274 77.2741 70.8435 73.9898 72.2311C72.2567 72.9614 71.5781 73.0832 69.2996 73.0832C67.5181 73.0832 67.106 73.0467 66.2819 72.8032C63.3612 71.9633 60.7677 69.9671 59.2528 67.4474C58.5741 66.3032 57.9196 64.4773 57.7136 63.1627C57.5197 61.8968 57.6409 59.5841 57.9681 58.3547C59.3012 53.3397 63.9187 49.688 69.1178 49.5419C69.4208 49.5419 70.1601 49.5906 70.7539 49.6636Z" fill="#F8BA3B"/>
<path d="M75.2384 55.9934C75.1051 56.0664 73.3599 57.7705 71.3603 59.7668L67.7245 63.4063L65.7248 61.3857C64.622 60.278 63.5797 59.292 63.3979 59.1947C62.1981 58.5617 60.8892 59.9615 61.5315 61.1909C61.7497 61.5804 66.7671 66.6076 67.1428 66.8024C67.4821 66.9728 67.9669 66.9728 68.3062 66.8024C68.6819 66.6076 76.9715 58.3061 77.1896 57.9044C77.4078 57.4784 77.4078 57.1497 77.1654 56.6385C76.8382 55.9568 75.8929 55.6404 75.2384 55.9934Z" fill="#F8BA3B"/>
</svg>
