<svg width="100" height="100" viewBox="0 0 100 100" fill="none" xmlns="http://www.w3.org/2000/svg">
<g id="Group 1171274761">
<circle id="Ellipse 2551" cx="50" cy="50" r="50" fill="#FDEAC4"/>
<g id="calendar">
<path id="Vector" d="M32.8121 27.1343C31.6409 27.5568 31.0068 28.5248 31.0068 29.8977V30.4874L29.9765 30.5226C29.1575 30.549 28.8493 30.593 28.5323 30.7426C28.0039 30.9802 27.4315 31.5523 27.1849 32.0803L27 32.4851V51.2745V70.0639L27.1849 70.4687C27.4315 70.9967 28.0039 71.5688 28.5323 71.8152L28.9374 72H49.5H70.0626L70.4677 71.8152C70.9961 71.5688 71.5685 70.9967 71.8151 70.4687L72 70.0639V51.2745V32.4851L71.8151 32.0803C71.5685 31.5523 70.9961 30.9802 70.4677 30.7426C70.1507 30.593 69.8425 30.549 69.0411 30.5226L68.0108 30.4874L67.9755 29.7217C67.9315 28.8153 67.729 28.3048 67.2006 27.7768C66.6634 27.24 66.1526 27.0287 65.3513 27.0287C64.5499 27.0287 64.0391 27.24 63.502 27.7768C62.9736 28.3048 62.771 28.8065 62.727 29.7305L62.6918 30.505H60.0675H57.4432L57.408 29.7305C57.364 28.8065 57.1614 28.3048 56.6331 27.7768C56.0959 27.24 55.5851 27.0287 54.7838 27.0287C53.9824 27.0287 53.4716 27.24 52.9344 27.7768C52.4061 28.3048 52.2035 28.8065 52.1595 29.7305L52.1243 30.505H49.5H46.8757L46.8405 29.7305C46.7965 28.8065 46.5939 28.3048 46.0656 27.7768C45.5284 27.24 45.0176 27.0287 44.2162 27.0287C43.4149 27.0287 42.9041 27.24 42.3669 27.7768C41.8386 28.3048 41.636 28.8065 41.592 29.7305L41.5568 30.505H38.9325H36.3082L36.273 29.7305C36.229 28.8065 36.0264 28.3048 35.498 27.7768C34.7935 27.0727 33.7104 26.8175 32.8121 27.1343ZM34.2652 29.0529C34.4413 29.2377 34.4853 29.3785 34.5117 29.8889L34.547 30.505H33.6487H32.7505L32.7857 29.8977C32.8209 29.2641 32.9618 28.9913 33.3405 28.8241C33.6047 28.7097 34.0186 28.8153 34.2652 29.0529ZM44.8327 29.0529C45.0088 29.2377 45.0528 29.3785 45.0793 29.8889L45.1145 30.505H44.2162H43.318L43.3532 29.8977C43.3885 29.2641 43.5294 28.9913 43.908 28.8241C44.1722 28.7097 44.5861 28.8153 44.8327 29.0529ZM55.4002 29.0529C55.5763 29.2377 55.6204 29.3785 55.6468 29.8889L55.682 30.505H54.7838H53.8855L53.9207 29.8977C53.956 29.2641 54.0969 28.9913 54.4755 28.8241C54.7397 28.7097 55.1536 28.8153 55.4002 29.0529ZM65.9677 29.0529C66.1438 29.2377 66.1879 29.3785 66.2143 29.8889L66.2495 30.505H65.3513H64.453L64.4883 29.8977C64.5235 29.2641 64.6644 28.9913 65.0431 28.8241C65.3072 28.7097 65.7211 28.8153 65.9677 29.0529ZM31.0245 33.1628C31.0685 34.2365 31.2358 34.6941 31.7994 35.2573C32.2397 35.6974 32.7945 35.9614 33.4286 36.023C33.8865 36.067 33.9217 36.0582 34.2211 35.759C34.4413 35.539 34.5294 35.3717 34.5294 35.1693C34.5294 34.7821 34.0802 34.3333 33.5959 34.2629C33.3845 34.2277 33.1556 34.1133 33.0235 33.9724C32.8386 33.7788 32.8121 33.6468 32.7769 33.0044L32.7505 32.2651H37.1536H41.5568L41.592 33.1628C41.636 34.2365 41.8033 34.6941 42.3669 35.2573C42.8072 35.6974 43.3532 35.9614 43.9873 36.023C44.41 36.067 44.4804 36.0494 44.7534 35.803C45 35.583 45.0528 35.4773 45.0528 35.1693C45.0528 34.8701 45 34.7557 44.7798 34.5621C44.6301 34.4213 44.3571 34.2893 44.1546 34.2629C43.9521 34.2277 43.7231 34.1133 43.591 33.9724C43.4061 33.7788 43.3796 33.6468 43.3444 33.0044L43.318 32.2651H47.7211H52.1243L52.1595 33.1628C52.2035 34.2365 52.3708 34.6941 52.9344 35.2573C53.3748 35.6974 53.9207 35.9614 54.5548 36.023C54.9775 36.067 55.0479 36.0494 55.3209 35.803C55.5675 35.583 55.6204 35.4773 55.6204 35.1693C55.6204 34.8701 55.5675 34.7557 55.3474 34.5621C55.1977 34.4213 54.9247 34.2893 54.7221 34.2629C54.5196 34.2277 54.2906 34.1133 54.1585 33.9724C53.9736 33.7788 53.9472 33.6468 53.9119 33.0044L53.8855 32.2651H58.2886H62.6918L62.727 33.1628C62.771 34.2365 62.9384 34.6941 63.502 35.2573C63.9423 35.6974 64.4883 35.9614 65.1223 36.023C65.545 36.067 65.6155 36.0494 65.8885 35.803C66.135 35.583 66.1879 35.4773 66.1879 35.1693C66.1879 34.8701 66.135 34.7557 65.9149 34.5621C65.7652 34.4213 65.4922 34.2893 65.2896 34.2629C65.0871 34.2277 64.8581 34.1133 64.726 33.9724C64.5411 33.7788 64.5147 33.6468 64.4795 33.0044L64.453 32.2563L67.1037 32.2827L69.7544 32.3091L69.9922 32.5555L70.2387 32.7932L70.2652 35.4333L70.2916 38.0735H49.5H28.7084L28.7348 35.4421C28.7613 32.9516 28.7701 32.802 28.9374 32.6171C29.2016 32.3267 29.3865 32.2739 30.2231 32.2739L30.9892 32.2651L31.0245 33.1628ZM70.2652 54.7948L70.2387 69.7558L69.9922 69.9935L69.7544 70.2399H49.5H29.2456L29.0078 69.9935L28.7613 69.7558L28.7348 54.7948L28.7172 39.8337H49.5H70.2828L70.2652 54.7948Z" fill="#F8BA3B"/>
<path id="Vector_2" d="M36.8626 41.673C36.3166 41.9018 36.1493 42.6411 36.5632 43.0459C36.6865 43.1691 36.9331 43.2923 37.1092 43.3275C37.391 43.3715 37.4703 43.3363 37.7432 43.0635C38.1571 42.6499 38.1659 42.3066 37.7521 41.893C37.4526 41.5938 37.2149 41.5322 36.8626 41.673Z" fill="#F8BA3B"/>
<path id="Vector_3" d="M40.3761 41.6818C40.0943 41.7962 39.8125 42.201 39.8125 42.4826C39.8125 42.641 39.9094 42.8434 40.0679 43.0195L40.3233 43.3099L51.2078 43.3363L62.0835 43.3539L62.3741 43.0987C62.6119 42.8874 62.6648 42.7818 62.6648 42.4738C62.6648 42.1658 62.6119 42.0602 62.3741 41.849L62.0923 41.5938L51.3223 41.6026C45.4045 41.6026 40.473 41.6378 40.3761 41.6818Z" fill="#F8BA3B"/>
<path id="Vector_4" d="M33.3409 46.9534C33.244 46.9974 33.0855 47.1206 32.9886 47.2262C32.8213 47.411 32.8125 47.543 32.8125 51.2833V55.1468L33.0591 55.3844L33.2968 55.6308L37.1276 55.6572L40.9495 55.6836L41.2401 55.4196L41.5307 55.1644V51.2745V47.3846L41.2401 47.1294L40.9583 46.8742L37.2332 46.883C35.1902 46.883 33.4377 46.9182 33.3409 46.9534ZM39.8135 51.2745V53.9147H37.1716H34.5297V51.2745V48.6343H37.1716H39.8135V51.2745Z" fill="#F8BA3B"/>
<path id="Vector_5" d="M45.6613 46.9622C45.5556 46.9974 45.3883 47.147 45.2826 47.279C45.0977 47.5078 45.0977 47.5694 45.0977 51.2833V55.0587L45.353 55.3404L45.6084 55.6308L49.4479 55.6572L53.2787 55.6836L53.5693 55.4196L53.8599 55.1644V51.2745V47.3846L53.5693 47.1294L53.2875 46.8742L49.5624 46.883C47.5194 46.883 45.7581 46.9182 45.6613 46.9622ZM52.1427 51.2745V53.9147H49.5008H46.8589V51.2745V48.6343H49.5008H52.1427V51.2745Z" fill="#F8BA3B"/>
<path id="Vector_6" d="M57.9894 46.9622C57.8837 46.9974 57.7164 47.147 57.6107 47.279C57.4258 47.5078 57.4258 47.5694 57.4258 51.2833V55.0587L57.6812 55.3404L57.9365 55.6308L61.7761 55.6572L65.6068 55.6836L65.8974 55.4196L66.188 55.1644V51.2745V47.3846L65.8974 47.1294L65.6156 46.8742L61.8906 46.883C59.8475 46.883 58.0863 46.9182 57.9894 46.9622ZM64.4708 51.2745V53.9147H61.8289H59.187V51.2745V48.6343H61.8289H64.4708V51.2745Z" fill="#F8BA3B"/>
<path id="Vector_7" d="M33.3409 57.5142C33.244 57.5582 33.0855 57.6814 32.9886 57.787C32.8213 57.9718 32.8125 58.1038 32.8125 61.8441V65.7075L33.0591 65.9452L33.2968 66.1916L37.1276 66.218L40.9495 66.2444L41.2401 65.9804L41.5307 65.7251V61.8353V57.9454L41.2401 57.6902L40.9583 57.4349L37.2332 57.4437C35.1902 57.4437 33.4377 57.4789 33.3409 57.5142ZM39.8135 61.8353V64.4755H37.1716H34.5297V61.8353V59.1951H37.1716H39.8135V61.8353Z" fill="#F8BA3B"/>
<path id="Vector_8" d="M45.6613 57.523C45.5556 57.5582 45.3883 57.7078 45.2826 57.8398C45.0977 58.0686 45.0977 58.1302 45.0977 61.8441V65.6195L45.353 65.9012L45.6084 66.1916L49.4479 66.218L53.2787 66.2444L53.5693 65.9804L53.8599 65.7251V61.8353V57.9454L53.5693 57.6902L53.2875 57.4349L49.5624 57.4437C47.5194 57.4437 45.7581 57.4789 45.6613 57.523ZM52.1427 61.8353V64.4755H49.5008H46.8589V61.8353V59.1951H49.5008H52.1427V61.8353Z" fill="#F8BA3B"/>
<path id="Vector_9" d="M57.9894 57.523C57.8837 57.5582 57.7164 57.7078 57.6107 57.8398C57.4258 58.0686 57.4258 58.1302 57.4258 61.8441V65.6195L57.6812 65.9012L57.9365 66.1916L61.7761 66.218L65.6068 66.2444L65.8974 65.9804L66.188 65.7251V61.8353V57.9454L65.8974 57.6902L65.6156 57.4349L61.8906 57.4437C59.8475 57.4437 58.0863 57.4789 57.9894 57.523ZM64.4708 61.8353V64.4755H61.8289H59.187V61.8353V59.1951H61.8289H64.4708V61.8353Z" fill="#F8BA3B"/>
</g>
</g>
</svg>
