<svg width="50" height="50" viewBox="0 0 50 50" fill="none" xmlns="http://www.w3.org/2000/svg">
<path d="M40.8114 42.9586C46.7652 39.3473 47.8389 36.224 47.8389 22.2667V9.77344L38.0785 9.77344H28.3182V19.5338L28.3182 29.2941L33.6864 29.2941C38.6641 29.2941 39.0546 29.4893 39.0546 31.539C39.0546 34.2719 36.5169 38.0784 34.5648 38.0784C33.6864 38.0784 33.1983 39.1521 33.1983 41.4946C33.1983 44.4227 33.4912 44.9107 35.3456 44.9107C36.6145 44.9107 39.0546 44.0323 40.8114 42.9586Z" fill="white"/>
<path d="M15.4345 42.9586C21.3883 39.3473 22.4619 36.224 22.4619 22.2667V9.77344L12.7016 9.77344H2.94122V19.5338L2.94122 29.2941L8.30941 29.2941C13.2872 29.2941 13.6776 29.4893 13.6776 31.539C13.6776 34.2719 11.1399 38.0784 9.18784 38.0784C8.30941 38.0784 7.82139 39.1521 7.82139 41.4946C7.82139 44.4227 8.1142 44.9107 9.96867 44.9107C11.2375 44.9107 13.6776 44.0323 15.4345 42.9586Z" fill="white"/>
</svg>
