<svg width="24" height="24" viewBox="0 0 24 24" fill="none" xmlns="http://www.w3.org/2000/svg">
<path d="M6.47668 21H2.33028V7.64732H6.47668V21ZM4.40125 5.82589C3.07565 5.82589 2 4.72768 2 3.40179C2 2.07589 3.07565 1 4.40125 1C5.72685 1 6.8025 2.07589 6.8025 3.40179C6.8025 4.72768 5.72685 5.82589 4.40125 5.82589ZM21.9955 21H17.8581V14.5C17.8581 12.9509 17.8268 10.9643 15.7023 10.9643C13.5465 10.9643 13.2162 12.6473 13.2162 14.3884V21H9.07431V7.64732H13.0511V9.46875H13.1091C13.6626 8.41964 15.015 7.3125 17.0324 7.3125C21.2278 7.3125 22 10.0759 22 13.6652V21H21.9955Z" fill="#100F0F"/>
</svg>
